<svg xmlns="http://www.w3.org/2000/svg" viewBox="0 0 87.97 97.15"><defs><style>.cls-3{fill:#333}</style></defs><g id="Layer_2" data-name="Layer 2"><g id="icons"><path d="M64.15 14.61v-4.49A9.61 9.61 0 0054.57.5H32.9a9.61 9.61 0 00-9.62 9.62v3.61a10.55 10.55 0 00.06 1.13 43.5 43.5 0 1064.13 38.31 43.26 43.26 0 00-23.32-38.56z" fill="#fff" stroke="#b7b5b4"/><path d="M62.24 36.12l-14 14a4.93 4.93 0 10.57.57l14-14z" fill="#3fa9f5"/><path class="cls-3" d="M44.8 37.23a3.38 3.38 0 10-3.38-3.37 3.37 3.37 0 003.38 3.37z"/><path class="cls-3" d="M45.1 19.36v-5.63h9.47v-3.61H32.9v3.61h10v5.63a33.87 33.87 0 102.24 0zM44 82.52a29.36 29.36 0 1129.34-29.35A29.38 29.38 0 0144 82.52z"/></g></g></svg>